PathFileType	4	(X/Y/Z)	C:/Users/beibeiliu/ov580/test_trc/User2\sequence.28_training_dense_right.trc
DataRate	CameraRate	NumFrames	NumMarkers	Units	OrigDataRate	OrigDataStartFrame	OrigNumFrames
120	120	22	19	mm	120	65	256
Frame#	Time	ThumbCMC			ThumbMCP			ThumbIP			ThumbTip			IndexMCP			IndexPIP			IndexTip			MiddleMCP			MiddlePIP			MiddleTip			RingMCP			RingPIP			RingTip			PinkyMCP			PinkyPIP			PinkyTip			BackHand1			BackHand2			BackHand3	
		X0	Y0	Z0	X1	Y1	Z1	X2	Y2	Z2	X3	Y3	Z3	X4	Y4	Z4	X5	Y5	Z5	X6	Y6	Z6	X7	Y7	Z7	X8	Y8	Z8	X9	Y9	Z9	X10	Y10	Z10	X11	Y11	Z11	X12	Y12	Z12	X13	Y13	Z13	X14	Y14	Z14	X15	Y15	Z15	X16	Y16	Z16	X17	Y17	Z17	X18	Y18	Z18	
64	0.533333	57.9554	-30.933	91.4292	30.3622	-49.253	68.5306	10.0139	-64.4615	50.0311	0.253901	-77.0914	26.5082	58.84	-5.50405	10.4397	47.0623	-11.4966	-22.4918	41.1773	-27.062	-46.1638	71.1488	-34.0756	-2.36144	59.8768	-67.6619	-1.29242	60.0002	-69.291	39.0256	88.5254	-57.9824	3.98241	73.5363	-84.5233	21.0641	75.5872	-69.9219	50.5256	102.754	-69.5071	14.046	83.6647	-85.5858	36.0343	90.7172	-68.0051	62.2987	119.707	-23.0503	45.4033	130.258	-21.7221	82.6286	92.4724	-7.60486	74.2676	
65	0.541667	56.9048	-30.9812	89.5484	36.6432	-49.8455	67.623	14.4334	-62.8046	45.4632	6.43211	-75.7079	24.1231	60.2208	-1.91578	11.6296	52.4128	-8.34529	-20.6773	43.3115	-19.5773	-43.0621	75.9866	-31.0627	-5.53532	62.1888	-61.6228	-3.35174	61.9593	-65.3915	35.6508	87.1329	-52.3832	2.3794	73.5204	-76.1246	16.1244	77.097	-62.6124	50.2887	103.504	-64.3811	12.0387	87.3711	-81.3789	35.991	92.3364	-62.2559	57.9233	120.892	-18.5334	49.6611	128.535	-20.1673	85.7845	94.1262	-3.58033	73.3234	
66	0.55	57.5021	-30.7047	88.7815	38.994	-49.1076	66.5443	16.6703	-60.1567	38.6467	11.9553	-71.1354	17.34	62.4392	1.18485	9.2044	51.4739	-0.683121	-16.1291	42.5409	-15.1797	-45.3715	78.7602	-22.7056	-1.19249	65.0756	-56.532	-3.29456	68.6775	-58.6005	38.8386	91.5644	-48.7815	0.508062	78.4129	-72.7013	17.585	81.1416	-58.8593	48.5005	108.191	-57.8035	10.6785	90.9301	-76.1903	29.3865	99.1341	-58.6174	58.6597	123.881	-13.7788	47.8346	130.7	-18.7714	84.3752	94.4822	-3.81053	78.4591	
67	0.558333	58.0879	-29.572	88.7444	40.6353	-46.1307	62.8545	24.1163	-55.5494	33.1606	14.0355	-65.761	13.202	65.0835	5.87671	10.5588	53.2876	1.83532	-17.0698	48.1778	-12.6377	-43.6059	77.3455	-18.2177	-2.26371	69.168	-50.4089	-3.44352	72.2999	-54.8047	36.6003	98.0605	-38.7079	2.47799	82.1614	-65.1833	12.5373	86.1678	-53.3951	46.9078	113.851	-52.2762	10.1581	91.6303	-69.6842	31.3486	100.821	-54.7081	56.5523	124.452	-10.4512	53.5465	134.738	-17.0596	88.668	93.0002	0.158313	78.9921	
68	0.566667	59.7671	-29.4391	87.584	43.5151	-43.8617	62.1973	21.3845	-53.1429	32.0253	15.1453	-60.4617	9.17197	66.4399	8.75799	13.5608	58.1999	4.21149	-15.1047	46.4169	-10.4386	-39.8406	82.4213	-14.4172	-3.15664	71.4784	-45.5587	-2.3172	74.1065	-48.9304	38.4055	99.308	-35.3293	1.48351	82.9863	-59.237	12.714	87.6543	-45.3481	48.7297	112.606	-46.3464	9.51105	94.9658	-64.6802	25.7942	101.722	-47.3633	55.902	123.597	-6.6279	55.5359	133.128	-14.736	86.5885	97.8337	0.493035	78.9787	
69	0.575	63.407	-26.2664	82.9689	44.1555	-40.216	59.5233	25.3793	-46.8467	26.2163	19.0761	-55.4886	6.92629	62.9074	13.2562	10.94	54.9273	6.17448	-15.008	46.2644	-9.78296	-38.1123	81.4314	-8.35271	0.228623	67.7919	-40.6894	-0.399342	76.4008	-43.1775	40.2792	98.5566	-29.4821	3.08674	82.1423	-53.9263	12.6672	91.9241	-43.9845	48.3638	109.157	-41.5574	9.22025	97.3082	-64.4487	26.3577	103.335	-49.0142	54.3561	126.221	-4.14359	52.9977	130.241	-13.9944	91.1937	95.1444	0.319836	84.514	
70	0.583333	63.5673	-25.9001	85.4481	43.952	-37.5788	56.2184	24.3705	-43.8272	25.621	20.1493	-49.7351	1.85763	66.3748	14.0365	9.73635	54.6049	6.72578	-14.3906	43.0397	-12.4812	-38.6079	84.8494	-6.83691	1.64771	66.1061	-36.4179	0.610431	74.5424	-40.7758	40.7809	95.2702	-26.1814	5.1033	80.4008	-51.834	14.283	86.3251	-39.6298	49.6347	108.054	-38.9006	8.887	94.005	-60.2333	30.3188	99.2625	-45.6205	54.9012	125.75	-3.90097	52.5766	131.069	-13.3792	86.7548	97.8195	4.50395	83.2431	
71	0.591667	62.5889	-24.0157	84.4296	40.4553	-35.7219	58.1379	30.0824	-40.7334	22.9344	22.5312	-46.0177	-3.00682	65.3122	16.0196	13.447	56.472	4.10568	-14.4186	43.88	-11.421	-32.8581	79.1334	-5.70736	2.21987	65.2896	-35.9152	3.23014	70.3466	-34.7624	46.2458	93.8693	-26.8342	5.53078	83.4729	-52.1347	16.8308	88.5282	-36.7998	53.2485	110.751	-37.6566	11.4966	91.798	-57.1857	28.2641	99.9322	-45.3039	55.1639	127.555	-2.87535	56.6538	131.512	-15.8302	92.4071	97.2166	0.942184	86.6935	
72	0.6	63.2262	-25.0449	87.8884	42.3867	-34.3695	54.6296	31.051	-39.3287	22.0939	27.1489	-44.9203	-3.24676	67.6094	15.5554	16.3963	54.6128	3.23737	-13.7367	44.6322	-16.7556	-32.7574	80.6517	-5.80174	4.38516	67.8075	-38.2615	6.81269	70.624	-35.7198	45.5504	94.1429	-24.7402	7.29261	78.3174	-49.8117	20.9249	90.4817	-38.5652	53.7319	109.247	-35.5964	12.8989	91.1796	-56.2711	33.7534	103.503	-43.3854	61.1277	126.572	-3.02862	57.3612	132.792	-14.1531	87.7183	94.7793	4.46924	84.1631	
73	0.608333	62.6077	-23.2718	84.8472	39.4564	-35.1323	56.932	32.2863	-40.0469	23.1062	28.5409	-43.6937	-1.77342	65.0482	15.6903	15.9754	50.1845	4.62067	-9.32059	42.5569	-14.952	-28.8523	79.5917	-4.58696	5.84104	66.8517	-35.3447	6.36953	71.2489	-35.1538	46.8633	93.1378	-23.9683	8.81583	80.6832	-52.9809	21.8006	89.537	-38.6947	54.8081	109.448	-37.6677	13.7391	93.8426	-59.7643	34.3815	103.638	-42.8549	63.3175	123.117	-3.26704	56.4468	130.99	-16.237	91.5296	95.5389	2.05505	87.6682	
74	0.616667	63.0872	-25.0435	85.6815	43.8823	-34.1326	53.8348	33.5489	-39.2982	23.0848	31.5948	-42.9125	-3.41518	64.6049	14.626	16.6529	51.1918	2.20065	-10.4751	45.644	-19.3287	-28.0888	79.2969	-5.02933	6.37702	68.0221	-37.5446	9.06975	74.3027	-36.5873	47.4527	94.4781	-24.0226	8.56983	80.9697	-52.3465	24.7138	88.3824	-40.8918	54.2668	109.303	-37.3762	13.5288	92.4934	-58.7996	36.2357	102.368	-40.9254	61.8182	126.101	-3.56557	55.095	131.516	-16.9755	92.2943	96.2511	4.51176	84.7105	
75	0.625	62.4546	-23.5864	85.2761	42.1572	-34.145	56.6617	31.8799	-38.7285	23.7726	27.8244	-40.6725	-5.50139	63.8779	14.2419	14.9626	51.7769	1.38221	-9.10294	40.7915	-19.3681	-27.0143	79.727	-1.28889	8.84985	64.7805	-35.9426	9.82015	74.2348	-32.1117	50.5207	92.6355	-27.5654	6.97941	79.1859	-49.4774	19.471	89.158	-38.9606	54.1584	110.402	-35.8721	13.3538	93.9227	-58.9228	31.4056	103.469	-43.6197	62.0214	127.048	-3.11099	55.7321	131.834	-17.0046	91.2309	95.905	6.43683	86.2722	
76	0.633333	63.0358	-23.3755	87.0445	42.7158	-31.1978	52.5422	33.4635	-36.8902	21.957	26.4585	-40.823	-3.94265	67.7933	15.413	17.6994	49.9017	3.5237	-7.04231	42.289	-22.9321	-28.3777	79.5591	-2.00178	7.33326	66.4566	-36.1603	9.20498	72.1314	-33.3867	47.8473	92.8723	-23.3006	9.21447	79.4027	-50.6707	23.3517	88.8793	-38.3482	54.4808	108.447	-35.0979	14.3833	92.169	-57.2782	32.2721	100.823	-40.4251	62.3757	125.501	-4.87735	60.4339	134.839	-14.4007	89.2215	98.932	2.8708	89.7793	
77	0.641667	62.0881	-22.2314	86.7045	45.9074	-33.5234	55.9638	32.9115	-36.7097	23.4885	27.6414	-41.293	-3.45201	61.5938	16.5119	14.9177	50.3663	2.12521	-7.74915	43.2513	-20.2693	-27.4739	80.1209	-3.32105	6.75	63.749	-33.0183	8.89641	75.14	-33.768	48.5743	92.9557	-28.4697	6.17363	77.7669	-47.7267	21.1133	85.9348	-37.9899	54.2425	110.6	-38.5503	13.3357	93.7393	-58.6217	35.1118	105.65	-40.8872	62.3387	125.219	-3.83815	56.9456	134.369	-16.0522	87.6561	100.585	2.95044	85.8793	
78	0.65	61.9764	-22.5475	88.4122	43.0016	-34.385	58.3385	30.0904	-36.5175	19.7276	30.4087	-41.2165	-4.4898	66.0326	15.4458	18.2354	49.6911	5.33203	-7.72898	43.0089	-16.0198	-29.0702	81.5862	-1.3549	8.94728	67.7652	-35.6093	7.61867	73.8159	-34.6361	47.7731	93.7196	-27.4159	7.46794	80.5744	-51.9682	22.7902	89.124	-37.5123	54.5269	107.222	-40.1094	12.6684	93.6839	-59.5235	32.8806	101.14	-42.3691	61.1223	125.923	-2.19039	58.2282	132.29	-13.683	92.6151	99.5642	4.23456	85.2036	
79	0.658333	61.3926	-22.1889	85.823	41.3285	-33.5512	56.9089	31.5164	-40.7477	27.1451	28.1786	-43.7747	-0.738944	62.2301	17.9495	14.2225	53.5273	7.40968	-12.5192	40.0616	-7.97054	-31.9089	79.087	-1.33986	7.46198	65.089	-34.3641	6.28931	72.0634	-32.2304	49.7014	92.8299	-23.493	8.4886	77.3663	-50.3205	21.6816	89.1115	-36.3869	54.561	107.99	-39.9121	10.5519	89.1699	-55.0606	31.5643	102.58	-42.388	61.4152	125.56	-2.61853	58.4052	130.953	-12.0381	89.5845	97.5152	3.50876	86.4091	
80	0.666667	61.5668	-21.5504	86.6964	40.7858	-33.8074	54.8434	27.5063	-41.2214	25.7598	18.759	-47.296	1.19101	67.4486	19.2664	12.3533	53.9139	13.0297	-13.012	43.6771	-1.30159	-36.3741	80.0182	-4.898	4.93978	66.3845	-37.4245	6.07981	70.057	-35.1377	46.6701	93.0087	-25.1074	6.54021	77.2161	-49.7477	18.9356	86.1222	-37.9862	53.6746	106.238	-37.742	10.9386	90.2452	-58.2521	33.2877	103.749	-40.8024	59.6634	124.264	-2.79995	57.3801	131.485	-14.0822	88.3688	97.5303	3.42733	85.2066	
81	0.675	61.4835	-22.4284	85.6411	42.3084	-35.9498	56.4137	25.9473	-42.332	27.2595	22.3288	-48.2165	3.14704	64.8279	20.0782	13.3237	54.0507	13.8182	-13.2553	43.7985	1.77167	-39.2595	80.6055	-8.09748	1.88041	66.3141	-39.6422	9.57059	70.0273	-34.372	47.4594	92.6227	-29.2529	5.4898	75.6343	-51.5249	21.9825	89.4622	-40.4105	54.6117	105.685	-41.3413	11.3757	90.9903	-60.2372	33.8827	100.743	-43.3125	60.4071	125.429	-5.51013	57.9446	135.328	-15.8276	88.7886	101.252	2.95673	82.7591	
82	0.683333	59.0309	-22.0609	85.2946	42.8507	-35.4299	56.0877	29.1915	-41.0148	24.8413	20.6325	-47.3021	1.95102	67.7703	16.8965	11.6139	56.6955	12.7861	-12.0185	48.6283	0.836722	-35.3854	79.9952	-6.45434	5.11265	62.7796	-35.9716	5.77046	71.8188	-33.7615	49.5013	91.188	-30.0113	6.209	76.416	-51.4926	23.4701	86.8032	-41.1698	53.2218	107.935	-39.3214	12.4206	91.5724	-60.8838	34.1605	99.6597	-44.4523	60.0157	126.041	-4.20748	53.6936	132.794	-12.6677	87.68	98.4801	3.99856	81.4734	
83	0.691667	63.2108	-23.2055	86.5555	41.8707	-35.0315	55.0653	28.8933	-40.4891	26.2207	20.6707	-45.7544	1.51635	68.3978	16.7519	14.529	53.6808	11.194	-13.2842	43.2234	-0.827703	-37.145	82.5343	-6.16659	5.19227	65.7282	-37.2758	6.47815	71.2098	-35.8658	46.8307	92.4388	-25.9824	8.49281	79.6339	-52.2601	19.0842	85.7464	-38.3216	54.99	105.486	-41.4075	12.5813	90.3367	-58.379	35.6886	99.7952	-44.2286	60.1893	128.174	-4.48745	55.64	135.655	-16.96	90.7043	99.9882	5.03942	83.7495	
84	0.7	63.0384	-23.0324	86.3391	46.1491	-33.0807	54.5745	30.172	-38.0397	21.8951	25.8322	-43.9866	0.733894	63.0064	18.1658	14.1275	55.2282	7.52797	-12.5639	44.7001	-5.4079	-35.9994	80.9252	-4.33036	7.58179	64.9105	-38.3651	8.93893	74.337	-34.9986	48.7526	90.0366	-26.9478	6.78056	81.9026	-54.2662	20.2285	85.2749	-38.3463	53.4187	110.837	-37.5105	13.0058	93.5266	-61.4103	32.5659	99.5859	-43.5625	58.7316	122.996	-1.35026	56.0298	133.668	-14.0725	88.9741	100.058	4.01902	82.4184	
85	0.708333	62.9446	-22.2176	85.0897	44.5649	-32.7608	55.1157	35.6938	-36.1159	21.4338	26.3493	-41.5737	-1.37756	64.5677	15.9462	16.8702	53.8092	6.73589	-10.1513	43.9648	-9.05167	-34.4896	78.0259	-3.99505	5.0723	67.5849	-35.6413	5.58645	73.1344	-32.9866	49.3453	94.6032	-28.595	6.91746	79.3164	-50.1325	19.4009	90.1528	-39.2948	54.6548	107.724	-38.9081	13.3624	93.1412	-58.9929	32.9298	101.638	-39.01	59.8595	123.865	-2.68174	59.7287	132.912	-16.8845	92.633	100.734	2.32157	87.4812	
